<?xml version="1.0" standalone="no"?>
<svg xmlns="http://www.w3.org/2000/svg" width="474" height="607" viewBox="0 0 944.523 1209.55">
<path d="M10,1108.16
C10,1117.37,17.0155,1122.64,23.2078,1131.19
L38.5475,1152.64
C67.1054,1193.99,58.3618,1175.59,71.4135,1193.12
C75.7846,1198.99,78.3816,1199.55,93.4096,1199.55
C130.438,1199.55,256.532,1195.47,305.104,1195.47
C313.646,1195.47,320.293,1195.59,321.216,1195.77
L330.894,1192.8
C335.982,1188.16,331.366,1192.05,337.085,1186.83
C353.018,1166,368.743,1125.93,376.386,1105
C380.75,1104.5,383.927,1105.88,383.927,1105.88
H384.393
C394.898,1105.88,409.618,1114.18,435.52,1114.18
H509.016
C537.964,1114.18,611.55,1080.86,635.252,1051.24
C644.716,1039.41,663.115,1028.07,675.092,1015.96
C674.12,1022,673.182,1028.51,673.182,1035.91
C673.182,1114.41,716.036,1147.56,725.552,1179.35
H748.91
C743.029,1138.64,696.382,1113.68,696.382,1035.91
C696.382,1020.55,700.422,1012.88,700.422,997.522
C700.422,992.219,701.365,987.219,702.372,979.193
C707.62,965.854,710.161,954.203,717.228,947.137
C731.991,932.375,735.712,899.379,743.646,883.511
C753.666,863.47,752.293,843.994,759.808,828.963
C766.919,814.74,762.554,799.225,767.888,788.557
C770.867,782.597,773.194,774.72,773.194,753.963
C773.194,751.87,773.178,749.864,773.166,747.999
C773.744,747.429,774.123,747.043,775.247,745.356
C777.787,741.323,760.624,728.77,755.941,732.492
C755.112,733.735,749.954,737.489,749.954,744.984
C749.954,747.847,749.994,750.881,749.994,753.963
C749.994,765.945,749.188,774.079,747.136,778.183
C740.026,792.406,742.6,811.477,739.044,818.589
C731.469,833.741,729.801,859.324,722.895,873.137
C714.885,889.156,708.791,922.765,700.824,930.731
C683.644,947.909,675.675,978.716,661.582,996.334
C650.465,1010.23,631.958,1018.22,617.136,1036.74
C599.248,1059.1,531.741,1090.98,509.016,1090.98
H435.52
C406.215,1090.98,406.304,1083.39,386.678,1082.72
C386.69,1082.7,413.798,1038.72,416.429,1033.65
C422.624,1021.7,451.862,997.682,454.274,965.609
C477.691,915.376,484.717,833.929,487.223,826.987
C491.859,814.149,494.307,789.985,494.307,786.306
C494.307,783.294,494.562,779.089,494.694,775.339
C513.088,787.475,540.408,810.427,570.884,810.427
C590.811,810.427,610.961,807.556,648.513,766.612
C652.947,761.777,681.798,725.608,681.798,682.965
C681.798,673.253,678.606,668.465,677.652,658.684
C686.771,659.844,686.589,660.002,703.225,660.002
C703.467,660.002,704.033,660.028,704.49,660.028
C719.438,660.028,729.946,648.579,754.587,630.453
C763.275,648.466,774.365,654.14,782.624,687.188
C784.992,688.525,805.367,683.946,805.132,681.564
C793.991,636.982,774.751,627.786,773.154,613.664
V583.36
C773.154,571.844,777.194,560.328,777.194,544.974
C777.194,519.851,776.509,505.04,763.609,505.04
C754.739,505.04,706.88,530.025,701.01,530.025
L700.872,530.029
C694.264,527.441,674.684,521.252,662.558,521.252
C655.612,521.252,625.448,512.836,620.419,511.034
C632.247,492.523,636.815,478.154,636.815,469.934
C636.815,437.728,615.379,430.499,611.923,429.611
C611.923,429.465,611.785,426.775,601.651,426.775
C599.979,426.775,598.239,426.941,596.08,427.5
L581.813,431.145
C561.899,442.373,553.553,442.942,534.481,463.565
C523.563,470.622,470.973,511.337,433.804,548.373
L422.704,559.185
C437.37,521.059,449.801,524.838,492.398,446.717
C494.907,442.116,511.228,409.265,514.025,399.363
C513.993,399.477,513.978,399.556,514.003,399.655
C514.889,399.655,552.165,337.195,558.226,318.331
C559.877,313.193,563.695,304.999,563.695,291.747
C563.695,277.013,551.499,250.67,525.299,250.423
H523.811
C507.578,250.423,489.303,252.779,456.217,312.187
C433.448,353.069,413.236,370.581,410.049,375.361
L383.472,414.964
C402.161,340.541,442.531,289.612,442.531,257.252
C442.531,256.581,442.928,253.229,442.928,250.546
C442.928,226.182,419.241,208.13,399.501,208.13
C376.259,208.13,362.42,225.95,347.993,247.084
C338.255,261.35,333.736,265.788,318.903,296.961
C309.892,283.147,299.067,282.055,292.45,282.055
C291.805,282.055,291.171,282.06,290.549,282.06
H284.575
C278.785,282.06,267.055,283.511,250.983,302.102
C244.192,309.958,230.187,318.717,214.763,339.424
C192.787,368.928,176.093,370.572,150.2,428.758
C146.934,418.327,144.952,406.815,144.952,392.186
C144.952,388.8,145.033,385.183,145.033,381.374
C145.033,356.538,158.624,310.481,158.679,310.236
L164.168,285.745
C176.879,230.611,199.954,193.796,232.219,140.178
C239.156,128.651,257.227,86.0245,310.68,53.3982
C328.577,42.4746,369.441,40,378.291,40
C436.731,40,483.738,70.4303,489.269,76.2426
L490.35,75.2139
L505.643,89.1091
C528.925,63.4845,529.728,50.4815,552.474,50.4815
C558.368,50.4815,642.228,60.2977,655.785,68.5829
C664.674,74.0155,680.03,80.1384,688.27,88.3042
C707.411,107.274,750.344,134.879,757.968,147.849
C781.26,187.477,782.613,180.777,787.684,189.633
C842.504,285.362,833.272,259.749,855.188,307.537
C863.108,324.799,883.948,390.058,883.948,398.819
V399.363
C883.669,401.911,882.853,408.297,882.853,413.788
C882.853,416.018,882.808,416.575,882.808,419.362
C882.808,443.912,887.24,431.474,892.218,460.393
C900.284,495.557,903.803,566.598,903.803,566.63
C903.803,573.53,904.523,578.706,904.523,583.881
C904.523,594.321,899.313,604.76,899.313,618.68
C899.313,627.427,895.831,636.174,895.831,647.836
C895.831,658.204,882.407,718.459,882.398,718.487
C872.805,748,864.595,752.161,850.179,782.964
C847.138,789.463,846.453,794.077,844.851,796.391
C833.577,812.68,818.044,821.414,811.897,866.799
C808.879,889.08,759.469,965.142,750.508,971.934
C715.061,998.804,734.31,977.49,712.222,998.823
C709.128,1003.96,731.702,1019.55,737.864,1014.4
C737.462,1014.78,737.281,1015.03,737.281,1015.15
C737.281,1015.22,737.337,1015.26,737.444,1015.26
C741.086,1015.26,772.18,998.754,786.123,975.587
C796.129,958.96,814.956,938.412,824.044,914.75
C829.183,901.368,839.162,889.014,841.625,870.825
C846.573,834.295,856.932,831.649,869.519,813.465
C873.229,808.104,869.124,813.146,885.744,779.297
C896.295,757.807,906.393,753.093,915.281,705.377
C918.513,688.029,925.831,670.852,925.831,647.836
C925.831,639.089,929.313,630.342,929.313,618.68
C929.313,609.134,934.523,597.842,934.523,583.881
C934.523,576.981,933.803,571.805,933.803,566.63
C933.803,566.624,929.744,493.82,923.031,461.046
C914.724,419.486,912.808,431.965,912.808,419.362
C912.808,418.247,912.853,414.903,912.853,413.788
C912.853,407.8,913.975,403.309,913.975,398.819
C913.975,386.51,890.555,294.313,849.544,236.601
C843.4,227.955,849.241,236.768,813.718,174.725
C806.058,161.347,804.677,168.11,783.83,132.645
C775.194,117.954,695.261,56.0408,690.666,53.2131
C641.27,22.8149,552.485,20.4815,552.474,20.4815
C521.73,20.4815,509.332,37.0285,501.234,47.3459
C459.761,20.5038,415.23,10,378.291,10
C246.154,10,216.221,116.986,184.707,162.001
C156.151,202.791,137.747,266.808,134.914,279.095
L129.411,303.652
L118.679,350.603
C116.41,360.304,115.033,371.166,115.033,381.374
C115.033,384.733,114.952,388.353,114.952,392.186
C114.952,426.911,132.427,469.406,132.442,469.427
L132.105,470.187
L131.897,470.107
C130.274,474.364,127.405,480.584,127.405,481.006
C127.405,481.018,127.408,481.025,127.413,481.028
C120.114,501.45,130.016,504.019,97.6107,568.938
C93.1058,577.963,82.6448,608.059,82.6448,617.838
C88.8753,652.255,108.972,637.419,119.77,735.177
C122.13,756.545,124.985,783.347,124.985,788.672
C124.985,818.214,132.616,851.463,132.616,868.756
C132.616,937.44,115.833,970.959,101.77,988.678
L83.9468,1011.14
C83.9406,1011.14,47.4459,1060.5,27.2772,1081.04
C22.0141,1086.4,10,1099.9,10,1108.16Z
M43.5173,1108.44
C52.4965,1096.85,82.2847,1064.22,90.5602,1052.19
C95.4879,1045.03,101.595,1037.19,107.463,1029.76
L125.188,1007.43
C156.645,967.792,162.616,909.711,162.616,868.756
C162.616,848.907,154.985,813.997,154.985,788.672
C154.985,767.713,144.136,685.994,140.389,675.408
C118.924,614.771,112.977,621.396,112.643,617.795
C112.643,597.812,151.494,540.884,155.262,492.398
C155.262,492.364,155.27,492.33,155.27,492.297
C155.27,492.171,155.61,491.226,155.714,490.965
L160.132,480.987
C183.417,428.408,186.106,412.881,220.236,378.098
C242.197,355.715,233.404,361.749,255.115,339.103
C255.551,338.648,274.383,320.981,285.202,312.04
C286.184,312.047,285.557,312.073,287.721,312.073
H290.549
C292.012,312.073,292.663,312.048,292.886,312.089
C292.886,312.236,293.44,312.636,295.708,314.772
C295.708,314.772,295.676,314.883,295.676,315.135
C295.676,315.599,295.782,316.541,296.385,318.148
C295.736,332.071,238.4,400.45,231.242,422.569
C225.483,440.364,222.21,479.284,206.419,511.682
C202.403,519.922,201.077,525.816,201.077,529.349
C201.077,532.408,213.177,544.646,216.201,544.646
C230.173,544.646,225.099,542.269,233.664,530.025
C252.237,503.474,252.661,503.192,274.173,459.503
L289.495,428.385
C291.697,423.869,297.908,409.973,300.27,405.545
L314.635,377.728
C334.21,338.548,352.733,284.046,387.894,244.101
C391.153,240.399,390.907,240.2,399.778,238.137
C400.985,238.194,406.321,239.009,406.321,239.227
C406.321,242.787,408.77,237.809,412.927,250.6
C412.917,251.958,412.531,254.605,412.531,257.252
C412.531,258.365,410.763,261.706,410.763,268.386
C406.785,284.843,375.113,329.359,347.993,428.06
C328.154,500.273,312.594,518.967,312.594,528.424
C312.594,531.427,324.6,543.439,327.601,543.439
C337.723,543.439,335.471,542.996,359.044,505.181
C360.546,502.772,370.019,486.433,372.773,480.45
C372.773,480.074,374.45,481.682,402.222,440.767
L435.081,391.895
C435.329,391.523,458.847,369.115,482.425,326.785
C485.374,321.491,507.041,286.81,516.064,281.494
C522.244,280.526,523.044,280.423,523.811,280.423
H524.235
C525.332,280.423,525.599,280.262,525.665,280.171
C529.818,282.653,532.426,284.427,533.685,291.949
C530.649,327.258,491.583,368.415,485.152,391.217
C478.646,414.286,449.424,459.065,435.395,483.635
C435.39,483.644,387.205,543.113,387.205,573.816
C387.205,584.105,393.792,588.186,400.842,591.004
C400.842,592.521,410.784,598.59,417.412,598.59
C426.952,598.59,436.3,590.268,438.981,584.906
C438.733,585.404,438.611,585.724,438.611,585.879
C438.611,585.954,438.64,585.991,438.696,585.991
C439.903,585.991,488.825,534.149,507.693,522.895
C514.054,519.1,527.747,505.773,536.293,498.509
C542.039,493.625,547.459,493.746,565.76,474.954
C571.972,468.576,596.545,457.279,596.553,457.275
C596.553,457.275,596.585,457.587,597.72,457.587
C598.466,457.587,599.689,457.452,601.693,457.004
C601.911,459.009,605.19,455.634,606.782,469.98
C602.892,472.889,609.266,486.672,569.041,523.479
C531.553,557.783,544.528,550.369,527.427,570.423
L491.534,610.865
C469.918,635.453,479.972,627.469,460.604,687.939
L457.211,698.534
C455.494,703.894,454.849,713.639,454.849,717.415
C454.849,741.965,464.771,755.573,464.771,771.644
C464.771,776.043,464.307,780.441,464.307,786.306
C464.307,787.337,443.424,915.437,432.503,939.629
C426.347,953.266,429.584,948.656,424.995,956.76
C424.995,956.76,424.667,961.333,424.346,963.792
C424.346,981.288,396.757,1006.41,389.797,1019.83
C387.725,1023.83,359.124,1069.98,359.123,1069.98
C351.846,1080.26,334.942,1136.88,315.485,1165.54
C312.213,1165.48,308.648,1165.47,305.104,1165.47
C255.566,1165.47,129.221,1169.55,93.4096,1169.55
C92.2235,1169.55,91.7267,1169.88,91.6564,1170.37
C79.006,1156.64,79.4094,1158.9,77.1099,1155.51
L47.5598,1113.67
C46.0568,1111.59,44.7085,1109.88,43.5173,1108.44Z
M574.426,559.275
L589.293,545.613
C592.61,542.577,600.182,535.5,606.244,529.33
C613.846,536.33,656.462,544.452,662.558,544.452
C675.271,544.452,693.45,553.241,701.01,553.241
C715.628,553.241,725.022,544.446,753.94,532.969
C753.976,535.815,753.994,539.653,753.994,544.974
C753.994,554.409,751.631,564.372,750.519,574.268
C744.586,577.428,749.62,580.712,706.87,607.305
C699.118,612.127,697.995,614.646,697.995,614.646
C687.51,614.646,677.05,609.757,662.989,609.259
L662.959,610.131
C648.218,577.918,631.37,578.658,631.275,578.641
C631.275,578.626,631.776,578.675,631.776,578.515
C631.776,576.712,603.134,563.946,588.227,561.521
L574.426,559.275Z
M484.849,717.415
C484.849,715.478,485.483,708.614,485.767,707.726
L489.186,697.053
C510.524,630.431,498.686,648.164,513.992,630.755
L550.091,590.077
C550.989,589.024,552.245,587.427,553.682,585.542
C556.7,586.42,567.546,588.55,569.102,588.803
L583.425,591.134
C595.468,593.093,612.878,601.74,612.875,601.836
C617.85,605.154,620.84,607.566,626.542,608.286
C626.543,608.29,645.031,636.649,646.736,649.707
C651.094,683.069,651.798,682.96,651.798,682.965
C651.798,713.532,629.613,745.571,618.673,754.892
C594.009,775.905,589.726,780.427,570.884,780.427
C545.222,780.427,505.923,743.426,487.882,736.489
C487.144,732.7,484.849,726.975,484.849,717.415Z"/></svg>
